<mxfile host="app.diagrams.net" modified="2024-05-28T15:54:31.270Z" agent="Mozilla/5.0 (Windows NT 10.0; Win64; x64; rv:126.0) Gecko/20100101 Firefox/126.0" etag="GNFn4af3Tqs1JhTbN6JW" version="24.4.6" type="github">
  <diagram name="Page-1" id="4u8Xa9abmDSXQj6CbTcC">
    <mxGraphModel dx="1185" dy="632" grid="1" gridSize="10" guides="1" tooltips="1" connect="1" arrows="1" fold="1" page="1" pageScale="1" pageWidth="850" pageHeight="1100" math="0" shadow="0">
      <root>
        <mxCell id="0" />
        <mxCell id="1" parent="0" />
        <mxCell id="Gvjc1iNS-nXWesyg77AH-4" style="edgeStyle=orthogonalEdgeStyle;rounded=0;orthogonalLoop=1;jettySize=auto;html=1;entryX=0;entryY=0.5;entryDx=0;entryDy=0;" edge="1" parent="1" source="Gvjc1iNS-nXWesyg77AH-1" target="Gvjc1iNS-nXWesyg77AH-2">
          <mxGeometry relative="1" as="geometry" />
        </mxCell>
        <mxCell id="Gvjc1iNS-nXWesyg77AH-1" value="&lt;div&gt;Photosensitive &lt;br&gt;&lt;/div&gt;&lt;div&gt;Semiconductor&lt;br&gt;&lt;/div&gt;" style="rounded=0;whiteSpace=wrap;html=1;" vertex="1" parent="1">
          <mxGeometry x="50" y="370" width="120" height="60" as="geometry" />
        </mxCell>
        <mxCell id="Gvjc1iNS-nXWesyg77AH-6" style="edgeStyle=orthogonalEdgeStyle;rounded=0;orthogonalLoop=1;jettySize=auto;html=1;entryX=0;entryY=0.5;entryDx=0;entryDy=0;" edge="1" parent="1" source="Gvjc1iNS-nXWesyg77AH-2" target="Gvjc1iNS-nXWesyg77AH-5">
          <mxGeometry relative="1" as="geometry" />
        </mxCell>
        <mxCell id="Gvjc1iNS-nXWesyg77AH-2" value="&lt;div&gt;Amplification&lt;/div&gt;&lt;div&gt;Device&lt;br&gt;&lt;/div&gt;" style="rounded=0;whiteSpace=wrap;html=1;" vertex="1" parent="1">
          <mxGeometry x="210" y="370" width="120" height="60" as="geometry" />
        </mxCell>
        <mxCell id="Gvjc1iNS-nXWesyg77AH-8" style="edgeStyle=orthogonalEdgeStyle;rounded=0;orthogonalLoop=1;jettySize=auto;html=1;entryX=0;entryY=0.5;entryDx=0;entryDy=0;" edge="1" parent="1" source="Gvjc1iNS-nXWesyg77AH-5" target="Gvjc1iNS-nXWesyg77AH-7">
          <mxGeometry relative="1" as="geometry" />
        </mxCell>
        <mxCell id="Gvjc1iNS-nXWesyg77AH-5" value="&lt;div&gt;Analog&lt;/div&gt;&lt;div&gt;Digital&lt;/div&gt;&lt;div&gt;Converter&lt;br&gt;&lt;/div&gt;" style="rounded=0;whiteSpace=wrap;html=1;" vertex="1" parent="1">
          <mxGeometry x="365" y="370" width="120" height="60" as="geometry" />
        </mxCell>
        <mxCell id="Gvjc1iNS-nXWesyg77AH-7" value="Computer" style="rounded=0;whiteSpace=wrap;html=1;" vertex="1" parent="1">
          <mxGeometry x="520" y="370" width="120" height="60" as="geometry" />
        </mxCell>
      </root>
    </mxGraphModel>
  </diagram>
</mxfile>
